<?xml version="1.0" standalone="no"?>
<!DOCTYPE svg PUBLIC "-//W3C//DTD SVG 20010904//EN"
 "http://www.w3.org/TR/2001/REC-SVG-20010904/DTD/svg10.dtd">
<svg version="1.0" xmlns="http://www.w3.org/2000/svg"
 width="1200.000000pt" height="1200.000000pt" viewBox="0 0 1200.000000 1200.000000"
 preserveAspectRatio="xMidYMid meet">
<metadata>
Created by potrace 1.14, written by Peter Selinger 2001-2017
</metadata>
<g transform="translate(0.000000,1200.000000) scale(0.100000,-0.100000)"
fill="#000000" stroke="none">
<path d="M4427 11460 c-12 -14 -38 -142 -92 -452 -42 -237 -76 -433 -78 -434
-1 -1 -42 -18 -92 -37 -142 -55 -574 -264 -595 -288 -3 -3 -18 -12 -35 -20
-47 -24 -77 -42 -99 -61 -11 -10 -26 -18 -33 -18 -7 0 -13 -3 -13 -8 0 -4 -17
-16 -37 -27 -21 -11 -47 -28 -57 -37 -11 -10 -24 -18 -29 -18 -10 0 -80 -51
-85 -62 -2 -5 -10 -8 -17 -8 -7 0 -15 -3 -17 -7 -5 -13 -86 -73 -97 -73 -6 0
-11 -4 -11 -10 0 -5 -6 -10 -14 -10 -8 0 -16 -7 -20 -15 -3 -8 -10 -15 -15
-15 -6 0 -23 -12 -39 -27 -16 -16 -43 -39 -61 -53 -17 -14 -45 -36 -61 -50
-16 -14 -45 -38 -64 -55 -36 -30 -203 -186 -241 -225 -125 -128 -175 -181
-175 -186 0 -4 -10 -17 -22 -29 -13 -12 -36 -39 -53 -59 -56 -69 -70 -85 -100
-121 -16 -20 -38 -45 -47 -56 -10 -10 -18 -21 -18 -24 0 -3 -5 -11 -10 -18 -6
-7 -33 -42 -61 -79 l-50 -68 164 0 164 0 24 31 c13 17 32 41 44 53 11 12 34
39 50 60 73 93 87 109 256 282 98 101 246 241 309 291 19 15 46 37 59 48 13
11 38 32 55 46 76 64 409 299 423 299 2 0 25 14 51 32 25 17 66 42 90 55 24
13 68 37 98 53 61 34 265 137 337 169 73 33 373 151 385 151 13 0 12 -8 87
430 36 212 70 395 75 408 l10 22 1330 0 1330 0 10 -22 c5 -13 39 -196 75 -408
75 -437 74 -430 87 -430 12 0 262 -98 362 -142 196 -85 451 -222 615 -328 116
-75 226 -149 244 -165 7 -5 39 -30 72 -54 33 -25 74 -56 91 -70 17 -14 42 -35
55 -45 41 -32 151 -128 213 -186 92 -86 356 -359 356 -369 0 -3 17 -25 38 -48
20 -23 51 -59 67 -79 77 -96 52 -86 228 -86 87 -1 160 1 162 4 3 2 -3 13 -13
24 -26 29 -72 92 -72 99 0 3 -13 20 -30 38 -16 18 -30 35 -30 38 0 4 -12 20
-27 37 -16 16 -39 44 -53 61 -14 17 -36 44 -50 60 -14 16 -41 48 -60 71 -31
38 -147 162 -200 215 -114 113 -201 195 -208 195 -4 0 -19 12 -33 28 -15 15
-41 38 -58 52 -18 14 -43 34 -56 45 -76 64 -120 99 -191 150 -15 11 -33 26
-40 33 -7 6 -17 12 -22 12 -5 0 -20 10 -34 23 -13 12 -64 48 -114 80 -49 31
-93 60 -99 64 -5 5 -22 14 -37 22 -16 8 -28 18 -28 23 0 4 -6 8 -14 8 -8 0
-21 6 -28 13 -7 7 -24 18 -38 24 -14 7 -56 30 -95 52 -150 84 -344 177 -525
251 -58 24 -106 44 -107 45 -2 1 -36 194 -77 429 -65 370 -78 432 -97 452
l-22 24 -1552 0 c-1537 0 -1551 0 -1568 -20z"/>
<path d="M5905 9958 c-131 -258 -305 -598 -422 -825 l-104 -203 208 -2 208 -3
0 -1409 0 -1408 -250 -145 c-137 -80 -270 -157 -295 -170 -57 -32 -265 -153
-395 -229 -55 -33 -104 -61 -110 -63 -5 -2 -75 -42 -155 -89 -80 -46 -165 -96
-190 -110 -25 -14 -184 -106 -355 -205 -170 -99 -326 -188 -345 -199 -19 -11
-102 -58 -183 -105 -125 -72 -150 -84 -161 -72 -12 13 -90 144 -154 259 -14
25 -29 47 -34 48 -4 2 -8 10 -8 18 0 8 -3 14 -7 14 -7 -1 -103 -141 -112 -164
-2 -5 -8 -15 -13 -21 -15 -18 -133 -199 -154 -235 -10 -19 -22 -37 -25 -40 -3
-3 -52 -77 -109 -165 -164 -254 -210 -325 -268 -412 -31 -46 -53 -86 -49 -89
5 -5 227 4 512 21 44 3 222 12 395 20 173 8 343 18 376 21 l62 5 -71 122 c-38
67 -85 147 -103 177 -26 43 -30 58 -21 67 7 7 138 85 292 174 154 89 334 193
400 232 66 38 145 83 175 100 30 17 57 33 60 37 3 3 12 9 21 13 10 3 174 96
365 207 192 111 385 223 429 248 44 25 82 50 83 54 2 4 8 8 14 8 6 0 86 43
177 97 91 53 180 104 196 113 17 9 72 41 123 70 l93 53 162 -93 c89 -51 209
-121 267 -155 58 -34 130 -75 160 -92 59 -33 295 -168 320 -183 27 -17 227
-132 560 -324 179 -103 332 -191 340 -196 48 -29 354 -206 498 -288 61 -35
115 -68 120 -75 7 -8 -21 -65 -90 -185 -55 -95 -98 -176 -95 -179 8 -7 5 -7
720 -43 673 -35 620 -33 614 -17 -2 7 -57 93 -122 192 -65 99 -155 239 -202
310 -46 72 -125 193 -176 270 -50 77 -98 152 -106 166 -33 55 -116 178 -121
179 -3 0 -50 -77 -104 -170 -54 -94 -103 -173 -107 -176 -9 -5 -60 21 -165 83
-27 17 -70 41 -95 55 -24 14 -143 83 -264 153 -121 70 -238 137 -260 150 -22
12 -78 45 -125 72 -47 28 -105 62 -130 75 -25 14 -72 41 -105 60 -33 20 -118
69 -190 110 -71 42 -189 110 -262 152 -73 42 -137 76 -142 76 -5 0 -11 4 -13
8 -1 5 -39 29 -83 53 -44 25 -183 105 -308 178 -125 72 -235 135 -245 138 -9
4 -25 14 -35 23 -16 16 -17 93 -15 1421 l3 1404 208 3 208 2 -74 143 c-41 78
-179 348 -307 600 -128 251 -236 457 -240 457 -4 0 -46 -78 -95 -172z"/>
<path d="M1490 8593 c0 -7 4 -13 9 -13 5 0 13 -10 17 -22 4 -13 10 -25 14 -28
3 -3 26 -41 51 -85 24 -44 51 -92 59 -106 8 -14 48 -84 89 -155 41 -71 78
-130 83 -132 4 -2 8 -8 8 -14 0 -6 34 -70 76 -142 42 -72 87 -149 99 -171 13
-22 46 -80 75 -130 29 -49 61 -106 72 -125 11 -19 62 -107 113 -195 94 -162
371 -641 407 -705 183 -320 415 -718 425 -728 7 -7 13 -17 13 -22 0 -7 254
-452 350 -613 l22 -38 42 24 c22 14 78 46 124 72 54 32 81 53 78 62 -3 7 -74
131 -157 276 -84 144 -173 298 -197 342 -25 44 -48 82 -52 85 -4 3 -9 12 -12
20 -3 8 -146 258 -318 555 -172 297 -320 554 -330 570 -20 35 -262 455 -458
795 -188 326 -184 318 -177 330 4 7 568 10 1736 10 1376 0 1729 3 1730 13 3
32 -2 271 -6 275 -2 3 -900 5 -1995 6 -1593 1 -1990 -1 -1990 -11z"/>
<path d="M6529 8599 c-8 -4 -15 -198 -10 -271 1 -17 91 -18 1735 -18 954 0
1737 -4 1740 -8 2 -4 -56 -113 -131 -242 -74 -129 -145 -253 -158 -275 -57
-100 -195 -339 -575 -995 -81 -140 -166 -289 -190 -330 -23 -41 -50 -88 -60
-105 -9 -16 -59 -102 -110 -190 -51 -88 -116 -201 -146 -251 -29 -49 -57 -99
-61 -110 -4 -10 -11 -23 -15 -29 -5 -5 -45 -73 -90 -150 -44 -77 -102 -177
-129 -223 -27 -46 -48 -86 -45 -90 2 -4 26 -18 53 -32 26 -14 50 -28 53 -31 3
-3 35 -22 72 -43 l66 -37 19 28 c11 15 40 64 65 108 24 44 128 224 230 400
101 176 198 345 214 375 16 30 32 57 35 60 3 3 58 97 123 210 64 113 121 212
126 220 35 56 235 404 250 435 8 17 18 32 21 35 4 3 37 59 74 125 38 66 78
136 90 155 12 19 35 60 52 90 17 30 77 136 135 235 127 219 375 649 391 679 7
11 14 23 17 26 3 3 12 19 20 35 8 17 17 32 20 35 6 6 27 43 52 90 10 19 27 49
37 65 l18 30 -1989 0 c-1095 0 -1994 -3 -1999 -6z"/>
<path d="M1552 8047 c-57 -115 -164 -394 -215 -557 -81 -259 -98 -326 -141
-540 -104 -525 -122 -1029 -55 -1562 l21 -168 -33 -30 c-19 -16 -47 -41 -64
-55 -16 -14 -44 -38 -61 -53 -17 -15 -48 -40 -68 -57 -20 -16 -47 -39 -60 -50
-13 -11 -40 -33 -60 -50 -20 -16 -49 -41 -65 -55 -15 -14 -41 -35 -58 -48 -56
-42 -97 -77 -117 -100 -11 -12 -24 -22 -29 -22 -13 0 -47 -40 -58 -68 -9 -23
4 -65 28 -90 7 -7 13 -18 13 -24 0 -6 6 -19 14 -27 7 -9 26 -41 42 -71 16 -30
34 -61 41 -68 6 -6 15 -22 19 -35 4 -12 9 -24 13 -27 3 -3 11 -14 17 -25 47
-89 60 -111 65 -115 3 -3 19 -30 35 -60 16 -30 32 -57 35 -60 3 -3 21 -34 40
-70 19 -36 37 -67 40 -70 4 -3 19 -30 35 -60 16 -30 32 -57 35 -60 4 -3 22
-34 40 -70 19 -36 36 -67 39 -70 8 -8 28 -42 47 -80 9 -19 20 -37 23 -40 4 -3
13 -18 21 -35 21 -42 43 -79 50 -85 3 -3 21 -34 40 -70 19 -36 37 -67 40 -70
4 -3 19 -30 35 -60 15 -30 34 -61 41 -68 7 -7 13 -20 13 -27 0 -7 6 -20 13
-27 6 -7 19 -26 27 -43 8 -16 19 -34 23 -40 21 -27 97 -162 97 -172 0 -7 4
-13 9 -13 5 0 14 -15 22 -32 7 -18 15 -35 18 -38 9 -8 29 -42 49 -80 9 -19 21
-39 25 -45 4 -5 37 -62 74 -125 36 -63 79 -137 95 -165 16 -27 34 -61 41 -75
6 -14 14 -27 18 -30 6 -5 45 -74 85 -150 11 -19 21 -37 24 -40 3 -3 12 -18 20
-35 21 -42 32 -53 50 -48 8 2 26 -3 40 -10 22 -12 35 -10 120 21 52 18 115 41
140 49 25 8 59 21 77 29 17 8 36 14 42 14 6 0 19 5 29 10 16 10 140 55 336
124 82 28 89 29 101 13 7 -9 17 -17 23 -17 6 0 15 -6 19 -13 4 -8 24 -24 43
-38 19 -13 40 -28 46 -34 6 -5 22 -17 34 -25 12 -8 28 -21 36 -27 7 -7 18 -13
24 -13 6 0 13 -7 16 -15 4 -8 12 -15 20 -15 8 0 14 -4 14 -10 0 -5 5 -10 11
-10 6 0 23 -9 37 -21 15 -11 65 -45 112 -74 47 -29 90 -58 97 -64 7 -6 17 -11
22 -11 5 0 16 -6 23 -13 8 -6 52 -32 98 -56 47 -25 87 -47 90 -50 3 -3 25 -16
50 -28 25 -12 106 -51 180 -86 344 -166 775 -305 1178 -381 146 -28 461 -70
468 -63 3 2 -19 44 -47 93 -28 49 -64 111 -80 139 l-27 50 -84 11 c-519 71
-1091 264 -1568 528 -153 85 -351 211 -465 295 -38 28 -81 59 -94 69 -37 25
-150 117 -201 162 -25 22 -52 40 -60 40 -8 0 -193 -65 -410 -145 -217 -79
-397 -142 -401 -140 -3 3 -30 46 -60 97 -29 51 -158 275 -287 498 -129 223
-244 421 -254 440 -52 91 -73 125 -78 130 -4 3 -10 14 -14 24 -3 11 -53 98
-110 195 -56 97 -118 203 -136 236 -19 33 -37 62 -42 63 -4 2 -8 8 -8 14 0 5
-33 66 -73 134 -81 140 -72 124 -151 264 -33 58 -72 125 -88 149 -15 25 -28
52 -28 62 0 9 45 53 100 98 54 44 110 91 124 104 26 23 28 25 116 96 30 25 60
50 65 55 6 6 48 42 95 81 47 38 96 80 109 92 13 13 28 23 32 23 12 0 11 55 -1
105 -5 22 -22 130 -37 240 -25 188 -27 223 -27 570 0 327 3 390 23 545 54 413
149 795 282 1133 22 53 39 104 39 111 0 16 -80 159 -92 164 -4 2 -8 8 -8 13 0
5 -13 32 -28 59 -28 48 -29 49 -40 27z"/>
<path d="M10356 7923 l-79 -138 23 -60 c158 -415 246 -762 301 -1185 20 -155
23 -218 23 -545 0 -347 -2 -382 -27 -570 -15 -110 -32 -218 -37 -240 -11 -48
-13 -105 -2 -105 4 0 21 -13 38 -28 17 -15 49 -42 72 -60 64 -52 85 -70 112
-95 14 -13 50 -43 80 -67 30 -25 60 -49 66 -55 6 -5 28 -23 49 -40 20 -16 45
-37 54 -45 9 -9 51 -45 94 -80 42 -35 77 -70 77 -77 0 -7 -42 -86 -94 -176
-51 -89 -126 -218 -165 -287 -39 -69 -76 -132 -81 -140 -20 -34 -466 -805
-539 -933 -10 -18 -51 -88 -91 -157 -40 -69 -123 -213 -185 -320 -174 -303
-170 -295 -191 -292 -10 2 -190 66 -400 143 -209 76 -387 139 -395 139 -12 0
-47 -27 -120 -93 -9 -8 -48 -38 -85 -67 -38 -29 -70 -56 -72 -61 -2 -5 -8 -9
-14 -9 -5 0 -46 -27 -91 -61 -329 -243 -839 -498 -1267 -632 -238 -75 -574
-152 -752 -173 -32 -4 -62 -12 -67 -18 -18 -22 -160 -270 -156 -274 7 -7 269
29 435 59 357 66 719 173 1045 309 90 38 471 226 485 240 4 4 29 18 115 64 11
6 22 13 25 16 5 5 50 34 127 83 24 15 45 27 48 27 3 0 18 11 32 24 14 13 37
30 52 38 26 13 51 32 76 56 8 6 18 12 24 12 6 0 11 3 11 8 0 4 21 20 47 36 25
17 59 41 74 55 63 59 52 57 163 19 55 -20 139 -50 186 -67 47 -18 112 -41 145
-53 33 -11 65 -24 70 -28 6 -4 24 -10 40 -14 17 -4 44 -13 60 -20 17 -7 73
-29 125 -48 89 -33 97 -34 125 -20 39 20 45 27 84 102 18 36 36 67 40 70 4 3
20 30 35 60 16 30 31 57 35 60 3 3 14 21 24 40 35 68 50 95 56 100 3 3 15 22
26 42 52 95 187 330 195 338 3 3 12 19 20 35 8 17 26 48 40 70 27 44 31 52 80
140 19 33 60 104 92 158 32 55 58 103 58 108 0 5 4 9 8 9 4 0 14 16 21 35 7
19 16 35 21 35 4 0 11 11 14 24 3 14 12 31 19 38 7 7 18 24 25 38 30 58 45 85
51 90 3 3 19 30 35 60 16 30 32 57 35 60 3 3 14 21 24 40 9 19 27 51 38 70 12
19 35 59 51 89 16 29 36 60 44 68 8 8 14 18 14 23 0 8 120 221 129 230 3 3 21
34 40 70 19 36 37 67 40 70 3 3 14 21 24 40 10 19 36 64 57 100 22 36 44 77
51 93 6 15 14 27 19 27 8 0 21 33 25 60 3 23 -42 90 -61 90 -4 0 -17 10 -30
22 -13 13 -37 34 -54 48 -16 14 -44 37 -60 53 -17 15 -33 27 -37 27 -3 0 -16
11 -29 25 -13 14 -26 25 -30 25 -4 0 -16 9 -28 20 -68 64 -86 80 -93 80 -5 0
-15 8 -24 18 -8 9 -35 33 -58 52 -51 41 -93 77 -139 118 l-34 30 21 168 c54
437 54 790 0 1219 -34 275 -108 616 -184 850 -14 44 -33 103 -41 130 -13 41
-81 219 -114 300 -18 43 -80 175 -83 175 -2 0 -38 -62 -81 -137z"/>
<path d="M6519 7836 c0 -9 -1 -241 -1 -516 0 -275 1 -610 1 -745 l1 -245 38
-23 c20 -13 66 -39 102 -58 36 -19 67 -37 70 -40 3 -4 52 -33 110 -66 149 -85
731 -421 883 -510 71 -41 131 -72 134 -69 5 4 8 1466 4 1509 -1 4 -7 7 -15 7
-8 0 -16 4 -18 8 -1 5 -52 37 -113 71 -60 34 -117 66 -125 71 -129 77 -259
150 -268 150 -6 0 -12 4 -14 8 -1 5 -169 105 -373 222 -203 117 -380 220 -392
228 -21 13 -23 13 -24 -2z"/>
<path d="M5360 7778 c-201 -117 -345 -200 -390 -225 -65 -37 -291 -168 -390
-226 -47 -28 -110 -64 -140 -81 -31 -17 -111 -62 -178 -101 l-121 -70 -1 -757
c0 -417 2 -758 4 -758 7 0 150 83 156 90 3 4 13 9 22 13 9 3 189 106 400 228
211 122 399 231 418 241 19 11 90 52 158 92 67 39 132 76 143 82 11 7 25 16
30 21 13 13 17 1506 4 1509 -6 2 -57 -24 -115 -58z"/>
<path d="M5800 5256 c-107 -62 -240 -139 -295 -171 -97 -56 -444 -256 -692
-399 -68 -39 -123 -73 -123 -76 0 -6 37 -27 390 -231 140 -80 311 -179 380
-219 69 -39 143 -82 165 -95 46 -26 208 -120 275 -159 110 -64 92 -65 213 6
126 73 154 89 314 181 65 37 125 72 133 77 20 13 223 130 580 334 147 85 170
99 170 106 0 3 -12 12 -28 21 -15 8 -309 178 -653 377 -345 199 -629 362 -630
362 -2 -1 -92 -52 -199 -114z"/>
<path d="M4250 4360 c-8 -5 -64 -37 -123 -71 -62 -35 -106 -67 -104 -74 3 -6
47 -83 97 -171 51 -87 103 -177 115 -199 13 -22 47 -80 75 -130 29 -49 85
-146 125 -215 39 -69 122 -213 184 -320 63 -107 122 -210 132 -228 29 -51 308
-533 431 -747 61 -104 122 -210 136 -235 14 -25 56 -99 95 -165 82 -140 271
-469 369 -639 37 -66 68 -123 68 -128 0 -4 4 -8 9 -8 5 0 16 -17 25 -37 22
-51 49 -97 59 -101 4 -2 7 -8 7 -12 0 -5 13 -30 29 -55 l29 -46 10 28 c11 29
19 43 84 150 21 34 38 67 38 73 0 5 5 10 10 10 6 0 10 4 10 10 0 5 133 239
295 519 162 281 321 557 353 613 33 57 116 202 187 323 70 121 138 240 152
265 14 25 50 86 79 137 30 50 54 96 54 101 0 6 3 12 8 14 6 2 66 104 159 268
22 39 25 44 147 253 47 81 86 150 86 154 0 3 6 14 14 22 7 9 27 41 43 71 16
30 69 121 116 203 48 81 87 151 87 155 0 4 9 18 20 32 11 14 20 30 20 37 0 10
-209 137 -239 145 -10 3 -60 -82 -389 -652 -74 -129 -143 -248 -152 -265 -63
-108 -393 -679 -555 -960 -73 -126 -156 -270 -185 -320 -29 -49 -62 -108 -75
-130 -59 -104 -275 -478 -326 -564 -24 -41 -49 -76 -55 -78 -11 -4 -44 49
-201 322 -45 77 -138 239 -208 360 -70 121 -137 236 -148 255 -10 19 -96 168
-190 330 -265 460 -387 671 -415 720 -14 25 -28 47 -32 50 -3 3 -10 14 -14 24
-4 11 -31 61 -60 110 -56 96 -162 278 -339 586 -125 219 -127 221 -147 210z"/>
</g>
</svg>
